<?xml version="1.0" standalone="no"?>
<!DOCTYPE svg PUBLIC "-//W3C//DTD SVG 20010904//EN"
 "http://www.w3.org/TR/2001/REC-SVG-20010904/DTD/svg10.dtd">
<svg version="1.0" xmlns="http://www.w3.org/2000/svg"
 width="2000.000000pt" height="2000.000000pt" viewBox="0 0 2000.000000 2000.000000"
 preserveAspectRatio="xMidYMid meet">
<metadata>
Created by potrace 1.14, written by Peter Selinger 2001-2017
</metadata>
<g transform="translate(0.000000,2000.000000) scale(0.100000,-0.100000)"
fill="#000000" stroke="none">
<path d="M12625 15892 c-261 -90 -477 -217 -693 -410 -40 -35 -75 -62 -78 -59
-3 3 5 41 17 86 18 66 20 83 9 96 -11 14 -17 12 -49 -11 -245 -182 -465 -408
-621 -640 -65 -96 -229 -373 -300 -508 -128 -241 -193 -431 -225 -650 -3 -22
-7 -42 -10 -44 -2 -2 -43 1 -92 7 -48 7 -104 14 -123 16 -19 2 -73 9 -120 15
-47 6 -101 13 -120 15 -19 3 -75 9 -125 15 -96 11 -149 18 -205 25 -73 10
-120 15 -275 29 -253 24 -271 25 -435 33 -298 15 -973 8 -1149 -12 -20 -2 -65
-6 -101 -9 -63 -6 -105 -10 -220 -22 -67 -7 -77 -8 -265 -34 -125 -17 -325
-50 -460 -75 -262 -50 -780 -172 -1040 -247 -194 -55 -557 -171 -620 -198 -11
-4 -90 -34 -175 -66 -505 -186 -1141 -490 -1552 -741 -304 -186 -633 -442
-810 -634 -43 -45 -78 -86 -78 -91 0 -4 73 -8 163 -9 786 -4 1598 -16 1649
-24 12 -2 82 -6 153 -9 141 -7 336 -23 400 -32 l39 -6 -59 -30 c-451 -224
-1177 -668 -1660 -1013 -370 -264 -859 -651 -1115 -881 -19 -17 -62 -55 -95
-84 -163 -144 -315 -290 -580 -555 -280 -280 -386 -392 -565 -595 -46 -52 -95
-108 -109 -124 l-26 -28 70 6 c39 3 113 9 165 12 52 3 113 7 135 9 257 23
1286 23 1490 0 17 -1 75 -6 130 -9 55 -4 111 -8 125 -10 14 -3 63 -7 110 -11
47 -3 99 -8 115 -10 17 -2 50 -6 75 -9 133 -15 230 -28 355 -47 39 -6 84 -13
100 -15 133 -20 451 -82 615 -120 137 -31 431 -107 428 -109 -2 -2 -55 -5
-118 -9 -258 -14 -543 -59 -815 -131 -109 -28 -288 -85 -283 -90 2 -1 28 -6
58 -9 259 -31 859 -220 1324 -418 796 -339 1766 -878 2313 -1286 114 -85 392
-306 438 -349 11 -10 52 -45 90 -78 202 -172 425 -384 695 -661 179 -184 280
-294 469 -509 58 -66 240 -285 311 -374 l75 -94 13 49 c74 279 216 619 363
870 299 510 653 867 1064 1072 184 92 325 123 530 117 173 -5 310 -44 395
-113 l24 -20 -54 -34 c-132 -84 -291 -145 -433 -165 -21 -3 -46 -6 -55 -8 -9
-2 -53 -4 -97 -5 l-80 -1 86 -83 c202 -194 401 -289 824 -391 121 -29 240 -58
265 -65 l45 -13 -79 -19 c-139 -32 -292 -46 -489 -45 l-188 2 6 -25 c49 -203
362 -515 696 -693 145 -78 373 -160 504 -181 17 -3 45 -8 62 -11 115 -19 182
-23 378 -20 121 3 231 6 245 9 14 2 45 7 70 10 145 19 323 64 480 123 231 86
512 252 663 392 92 86 85 141 -37 260 l-65 64 87 57 c277 180 514 436 672 724
42 76 43 79 19 73 -13 -3 -53 -9 -89 -13 -36 -3 -68 -8 -71 -10 -11 -6 -264
-18 -384 -18 -265 0 -524 30 -779 91 l-108 25 4 82 c9 142 120 443 236 635 78
129 125 191 259 338 154 169 246 317 296 478 31 100 36 126 43 250 8 136 -14
275 -71 441 -25 72 -45 136 -45 142 0 18 140 36 280 35 110 -1 180 -8 376 -42
439 -74 725 -144 1084 -264 117 -38 129 -45 181 -97 50 -49 60 -67 84 -141 81
-255 101 -508 62 -784 -9 -60 -19 -132 -22 -160 -3 -27 -8 -60 -11 -72 -2 -13
-2 -23 1 -23 18 0 248 101 345 152 144 75 339 204 450 299 47 39 102 82 122
95 62 39 151 64 255 70 115 6 205 26 290 64 246 111 423 349 448 605 10 93 33
133 103 175 380 225 448 291 460 449 15 211 -190 616 -444 876 -106 109 -138
135 -669 532 -209 157 -381 289 -383 293 -1 4 28 27 65 51 166 108 179 158 75
289 -199 251 -540 567 -838 776 -115 80 -398 255 -439 270 -11 5 -49 24 -85
44 -36 20 -155 83 -265 140 -410 211 -510 263 -518 270 -4 3 13 43 37 88 297
536 383 722 433 932 35 146 41 445 13 595 -44 236 -157 512 -211 515 -4 0 -10
-21 -14 -47 -5 -27 -9 -54 -11 -61 -1 -8 -8 -46 -14 -85 -24 -145 -53 -264
-83 -341 l-31 -80 -18 115 c-9 63 -20 141 -23 173 -12 108 -15 107 -86 -21
-143 -257 -249 -386 -412 -500 -244 -173 -800 -358 -1267 -423 -246 -34 -370
-43 -417 -30 -92 25 -443 301 -664 522 -244 243 -347 424 -411 721 -32 147
-32 455 0 642 56 325 156 588 314 822 29 43 33 53 21 53 -5 -1 -57 -18 -118
-38z m-355 -412 c-36 -67 -113 -324 -152 -502 -27 -129 -31 -164 -34 -353 -1
-115 1 -241 6 -280 42 -315 156 -581 341 -795 80 -93 293 -300 434 -422 177
-155 277 -278 369 -457 101 -197 144 -374 160 -661 9 -149 19 -241 27 -246 13
-8 123 142 162 220 74 150 100 283 92 468 -2 65 -14 162 -25 217 -11 54 -20
103 -20 108 0 22 299 -43 469 -102 93 -33 404 -163 856 -358 488 -211 1152
-517 1374 -633 355 -186 706 -433 986 -694 157 -146 175 -166 175 -197 0 -36
-27 -63 -70 -69 -41 -7 -62 12 -101 92 -61 124 -189 219 -353 264 -43 12 -80
19 -83 17 -7 -7 20 -57 92 -166 79 -121 113 -188 121 -240 6 -37 3 -44 -27
-74 -61 -61 -280 -103 -404 -77 -131 27 -205 90 -272 229 -77 162 -153 261
-268 348 -84 64 -178 106 -340 153 -128 37 -362 109 -638 195 -59 19 -134 46
-166 60 -84 38 -111 97 -77 164 30 57 96 80 249 86 56 2 122 10 147 18 l45 14
-51 26 c-139 71 -434 150 -605 163 -103 8 -146 -4 -188 -51 -41 -47 -53 -100
-54 -225 0 -122 17 -200 68 -308 24 -50 31 -74 22 -77 -7 -2 -120 -6 -252 -8
-234 -4 -360 -18 -352 -40 8 -26 399 -168 642 -232 574 -152 808 -262 1067
-502 261 -242 459 -329 828 -363 145 -14 455 -14 580 -1 52 6 105 11 118 11
36 0 26 13 -46 54 -143 84 -146 86 -126 100 24 16 100 44 137 50 44 7 121 -17
176 -57 27 -20 126 -80 218 -133 512 -294 991 -701 1165 -990 45 -74 141 -275
135 -281 -4 -3 -185 71 -287 117 -83 37 -101 42 -161 42 -45 -1 -91 -17 -159
-57 -50 -30 -62 -25 -323 114 -81 43 -122 60 -129 53 -30 -30 6 -181 69 -289
28 -49 116 -155 209 -253 286 -301 313 -531 86 -737 -123 -111 -305 -157 -470
-118 -119 28 -565 269 -722 390 -116 90 -178 162 -386 450 -68 95 -196 260
-214 275 -3 3 -18 21 -34 40 -132 161 -358 390 -436 441 -96 64 -217 119 -369
169 -81 27 -159 51 -172 53 -13 3 -51 12 -84 20 -33 9 -78 18 -100 22 -134 20
-237 34 -285 40 -30 3 -66 8 -80 10 -14 2 -65 7 -115 11 -49 3 -92 8 -95 9 -3
2 -68 7 -145 11 -263 17 -1012 9 -1138 -11 -12 -2 -53 -6 -92 -10 -121 -10
-170 -16 -185 -20 -8 -2 -49 -7 -90 -10 -98 -8 -242 -32 -305 -51 -109 -34
-195 -67 -195 -76 0 -5 3 -7 8 -4 38 23 1028 24 1372 1 36 -2 106 -7 155 -10
100 -6 194 -13 270 -21 28 -2 75 -7 105 -10 30 -2 93 -9 140 -14 47 -5 105
-12 130 -15 25 -3 71 -8 102 -11 88 -10 98 -37 36 -103 -44 -47 -124 -96 -199
-122 -59 -20 -79 -22 -264 -19 -550 9 -1157 2 -1355 -15 -25 -2 -85 -6 -135
-10 -49 -3 -106 -8 -125 -10 -19 -2 -80 -9 -135 -15 -340 -37 -750 -137 -1120
-273 -137 -51 -390 -170 -420 -198 -15 -14 35 -11 211 16 33 5 250 32 404 50
30 3 83 11 118 16 34 5 84 12 110 15 26 2 81 9 122 14 41 5 118 12 170 15 52
4 115 8 140 10 25 2 88 7 140 10 52 4 106 8 120 10 14 2 75 6 135 10 61 4 117
9 126 10 9 2 74 6 145 10 109 6 136 4 171 -10 159 -64 77 -296 -166 -478 -111
-82 -225 -214 -295 -338 -95 -172 -140 -397 -140 -704 0 -115 9 -301 19 -375
3 -19 14 -102 25 -185 11 -82 22 -159 24 -170 3 -11 5 -28 5 -38 1 -28 19 -11
27 25 3 18 10 39 15 48 4 8 35 97 69 198 104 315 191 459 356 589 l41 32 -13
-75 c-13 -77 -19 -119 -34 -259 -8 -80 -6 -462 3 -500 2 -11 8 -45 12 -75 23
-180 91 -389 195 -598 138 -277 300 -495 525 -703 106 -97 326 -254 433 -308
23 -12 42 -26 42 -31 0 -16 -110 -128 -171 -174 -81 -61 -222 -131 -344 -171
-90 -30 -143 -42 -305 -70 -58 -10 -391 -14 -455 -5 -33 5 -82 11 -110 15
-225 28 -523 141 -691 261 -77 55 -174 141 -174 154 0 4 32 11 71 14 158 16
410 69 489 103 96 41 130 59 192 99 37 25 97 77 135 118 76 82 172 239 149
244 -8 2 -45 -1 -83 -6 -97 -14 -341 -12 -453 3 -167 22 -358 75 -489 134
l-44 19 44 23 c101 51 307 180 352 219 62 55 89 108 88 174 -2 163 -197 448
-446 653 -216 176 -656 398 -968 487 -197 57 -297 70 -517 71 -222 0 -306 -11
-475 -61 -49 -14 -99 -29 -109 -32 -16 -4 -12 9 25 79 218 410 547 667 970
757 119 26 198 34 349 35 66 0 120 2 120 3 0 7 -163 126 -260 191 -443 295
-954 489 -1570 597 -80 14 -165 28 -190 31 -25 3 -56 8 -70 10 -69 10 -110 15
-160 20 -30 3 -71 8 -90 10 -19 2 -69 7 -110 10 -41 3 -97 8 -125 10 -27 3
-90 7 -140 11 -49 3 -91 7 -93 8 -4 4 203 148 295 205 362 224 813 393 1280
480 87 16 201 34 253 41 52 6 106 13 120 15 22 3 101 10 235 20 22 2 166 7
320 11 154 3 281 7 282 8 2 2 -149 88 -261 150 -82 44 -400 204 -466 234 -25
11 -91 40 -146 65 -438 197 -1105 428 -1851 643 -73 21 -131 39 -130 40 1 1
27 5 57 9 30 3 100 12 155 20 55 8 125 17 155 20 30 3 71 8 90 10 122 15 229
26 325 32 141 10 492 10 615 1 287 -23 820 -126 1555 -302 83 -20 305 -72 495
-116 190 -44 403 -95 473 -112 70 -16 130 -29 132 -26 6 6 -134 95 -254 162
-361 203 -932 421 -1451 555 -155 40 -394 95 -460 105 -19 3 -59 10 -89 16
-56 10 -196 31 -331 49 -243 32 -851 35 -1089 5 -20 -2 -94 -11 -166 -19 -448
-53 -978 -186 -1385 -347 -127 -51 -440 -205 -440 -217 0 -4 12 -8 28 -9 62
-5 569 -93 727 -127 490 -104 881 -222 1263 -381 136 -57 312 -140 312 -148 0
-15 -153 8 -320 47 -181 43 -341 76 -450 92 -25 4 -53 9 -63 11 -46 8 -351 44
-422 48 -44 3 -118 9 -165 12 -107 7 -575 7 -655 0 -33 -3 -103 -8 -155 -11
-52 -3 -122 -8 -155 -10 -33 -3 -91 -7 -130 -10 -71 -4 -171 -13 -235 -20 -19
-2 -71 -7 -115 -10 -44 -3 -96 -8 -115 -10 -19 -2 -82 -9 -140 -15 -112 -12
-180 -19 -220 -25 -14 -2 -50 -6 -80 -10 -30 -3 -71 -8 -90 -10 -19 -3 -55 -7
-80 -10 -25 -3 -76 -10 -115 -15 -189 -26 -284 -40 -320 -45 -86 -13 -351 -56
-375 -60 -14 -3 -54 -10 -90 -15 -321 -52 -1450 -289 -1503 -316 -7 -3 20 25
59 63 77 74 81 78 319 293 88 80 178 161 200 181 177 162 636 491 955 686 279
169 835 458 1100 571 25 11 65 28 90 40 103 46 385 154 530 202 283 93 573
162 841 199 81 11 154 23 162 27 16 6 33 41 24 50 -4 4 -86 24 -272 67 -229
53 -804 145 -1001 162 -39 3 -80 7 -90 9 -10 2 -64 7 -119 11 -55 3 -118 8
-140 11 -267 26 -1095 25 -1375 -2 -119 -11 -230 -20 -230 -17 0 1 46 33 103
71 206 138 492 293 772 417 83 36 159 70 170 75 196 90 718 270 1070 370 486
138 1136 264 1580 305 33 3 74 8 90 10 17 2 75 7 130 10 55 4 116 8 135 10 19
2 105 6 190 10 85 4 173 8 195 10 56 5 564 5 655 0 394 -21 777 -66 1148 -137
l63 -12 -6 -40 c-3 -23 -7 -92 -10 -154 -2 -62 -9 -121 -15 -132 -11 -20 -15
-20 -120 0 -96 19 -229 36 -390 50 -93 8 -700 5 -770 -4 -19 -2 -71 -7 -115
-10 -44 -4 -98 -9 -120 -12 -45 -5 -84 -10 -200 -23 -83 -10 -426 -61 -552
-82 -40 -7 -73 -15 -73 -19 0 -27 309 -93 1640 -350 633 -122 656 -128 785
-190 102 -49 180 -119 249 -224 30 -46 73 -97 96 -114 37 -27 125 -60 135 -51
2 3 -16 63 -40 134 -62 186 -109 411 -133 645 -15 138 -6 732 12 850 2 14 7
50 10 80 9 76 69 315 111 444 137 418 345 812 489 925 17 14 17 12 11 -35 -4
-27 -16 -89 -27 -139 -28 -128 -33 -315 -8 -315 12 0 93 109 200 270 199 298
300 422 438 532 77 61 100 72 82 38z m3658 -1708 c12 -254 -119 -552 -393
-892 -51 -63 -112 -135 -135 -160 -23 -25 -58 -64 -78 -88 -75 -91 -161 -106
-268 -46 -36 20 -113 55 -172 79 -59 23 -215 88 -347 145 -132 56 -251 106
-265 112 -22 9 -12 15 100 53 528 179 849 381 1099 689 l56 70 3 -52 c2 -31
-7 -89 -22 -149 -34 -134 -39 -160 -28 -167 11 -7 114 55 174 106 88 73 194
241 238 376 20 63 32 38 38 -76z m-17 -2872 c137 -42 245 -134 309 -259 l22
-44 -65 5 c-121 10 -252 96 -330 219 -19 30 -37 64 -41 77 -6 19 -4 22 17 22
14 0 53 -9 88 -20z m-1611 -2592 c26 -43 79 -213 95 -303 41 -243 -53 -478
-290 -719 -157 -160 -232 -277 -330 -516 -48 -115 -130 -288 -144 -303 -9 -10
-56 140 -77 248 -28 144 -21 396 16 630 54 333 165 564 358 746 174 163 291
249 339 249 7 0 22 -15 33 -32z m2837 -550 c106 -66 196 -124 198 -128 14 -22
-170 -232 -281 -320 -60 -48 -213 -144 -220 -138 -1 2 5 42 15 88 10 47 22
107 25 133 4 27 9 56 11 65 1 10 6 46 10 82 3 36 8 80 10 98 2 18 5 83 6 143
2 92 5 109 17 104 8 -3 102 -60 209 -127z m-2357 -2085 c-135 -127 -331 -257
-467 -311 l-64 -26 -43 22 c-85 40 -216 183 -273 295 -13 27 -23 53 -21 59 3
7 128 12 367 14 200 2 365 5 367 6 1 2 49 5 105 6 l102 3 -73 -68z"/>
<path d="M11660 14266 c0 -8 -4 -16 -8 -18 -11 -4 -81 -121 -110 -183 -76
-162 -124 -324 -142 -485 -6 -52 -13 -113 -16 -135 -12 -89 -11 -427 1 -550
43 -422 167 -737 430 -1090 45 -60 107 -137 138 -170 59 -63 67 -84 41 -109
-19 -19 -18 -19 -96 -1 -35 8 -79 17 -98 20 -19 3 -66 12 -105 20 -65 13 -274
48 -355 59 -119 17 -346 46 -405 51 -38 4 -83 9 -100 11 -81 11 -255 19 -390
19 -270 -1 -512 -29 -735 -85 -41 -10 -111 -26 -155 -35 -137 -28 -280 -79
-232 -83 7 0 104 -3 217 -6 210 -6 340 -13 375 -20 29 -5 76 -11 315 -41 69
-9 141 -18 160 -20 60 -8 344 -46 370 -50 14 -2 93 -13 175 -25 83 -11 161
-23 175 -25 14 -2 48 -7 75 -11 28 -3 59 -8 70 -10 11 -2 81 -13 155 -24 611
-93 1129 -197 1930 -389 207 -49 300 -66 300 -53 0 22 -44 184 -74 275 -89
270 -217 516 -382 738 -80 107 -99 130 -185 223 -31 34 -71 77 -89 96 -18 19
-94 100 -170 180 -76 80 -152 161 -170 180 -18 19 -58 62 -89 96 -341 369
-577 683 -701 939 -106 217 -105 214 -103 488 1 144 -2 237 -7 237 -6 0 -10
-6 -10 -14z"/>
</g>
</svg>
